0
SECTION
2
HEADER
9
$INSUNITS
70
4
0
ENDSEC
0
SECTION
2
TABLES
0
TABLE
2
LTYPE
0
LTYPE
72
65
70
64
2
CONTINUOUS
3
______
73
0
40
0
0
ENDTAB
0
TABLE
2
LAYER
0
ENDTAB
0
ENDSEC
0
SECTION
2
ENTITIES
0
LINE
8
0
10
-6.3583494
20
-11.0893031
11
10.3190672
21
-7.5444087
0
ARC
8
0
10
10.1111555
20
-6.5662611
40
1
50
282
51
12
0
LINE
8
0
10
11.0893031
20
-6.3583494
11
7.5444087
21
10.3190672
0
ARC
8
0
10
6.5662611
20
10.1111555
40
1
50
12
51
102
0
LINE
8
0
10
6.3583494
20
11.0893031
11
-10.3190672
21
7.5444087
0
ARC
8
0
10
-10.1111555
20
6.5662611
40
1
50
102
51
192
0
LINE
8
0
10
-11.0893031
20
6.3583494
11
-7.5444087
21
-10.3190672
0
ARC
8
0
10
-6.5662611
20
-10.1111555
40
1
50
192
51
282
0
LINE
8
0
10
-10.3586743
20
7.7307458
11
6.3187423
21
11.2756402
0
ARC
8
0
10
6.1108306
20
12.2537878
40
1
50
282
51
12
0
LINE
8
0
10
7.0889782
20
12.4616995
11
3.5440838
21
29.1391161
0
ARC
8
0
10
2.5659362
20
28.9312044
40
1
50
12
51
102
0
LINE
8
0
10
2.3580245
20
29.909352
11
-14.3193921
21
26.3644576
0
ARC
8
0
10
-14.1114804
20
25.38631
40
1
50
102
51
192
0
LINE
8
0
10
-15.089628
20
25.1783983
11
-11.5447336
21
8.5009817
0
ARC
8
0
10
-10.566586
20
8.7088934
40
1
50
192
51
282
0
LINE
8
0
10
-14.3589992
20
26.5507947
11
2.3184174
21
30.0956891
0
ARC
8
0
10
2.1105057
20
31.0738367
40
1
50
282
51
12
0
LINE
8
0
10
3.0886533
20
31.2817484
11
-0.4562411
21
47.959165
0
ARC
8
0
10
-1.4343887
20
47.7512533
40
1
50
12
51
102
0
LINE
8
0
10
-1.6423004
20
48.7294009
11
-18.319717
21
45.1845065
0
ARC
8
0
10
-18.1118053
20
44.2063589
40
1
50
102
51
192
0
LINE
8
0
10
-19.0899529
20
43.9984472
11
-15.5450585
21
27.3210306
0
ARC
8
0
10
-14.5669109
20
27.5289423
40
1
50
192
51
282
0
LINE
8
0
10
9.3168307
20
7.0102018
11
26.3019504
21
8.4962072
0
ARC
8
0
10
26.2147946
20
9.4924019
40
1
50
275
51
5
0
LINE
8
0
10
27.2109893
20
9.5795576
11
25.7249839
21
26.5646773
0
ARC
8
0
10
24.7287892
20
26.4775215
40
1
50
5
51
95
0
LINE
8
0
10
24.6416335
20
27.4737162
11
7.6565138
21
25.9877108
0
ARC
8
0
10
7.7436696
20
24.9915161
40
1
50
95
51
185
0
LINE
8
0
10
6.7474749
20
24.9043604
11
8.2334803
21
7.9192407
0
ARC
8
0
10
9.229675
20
8.0063965
40
1
50
185
51
275
0
LINE
8
0
10
7.6399106
20
26.1774859
11
24.6250303
21
27.6634913
0
ARC
8
0
10
24.5378745
20
28.659686
40
1
50
275
51
5
0
LINE
8
0
10
25.5340692
20
28.7468417
11
24.0480638
21
45.7319614
0
ARC
8
0
10
23.0518691
20
45.6448056
40
1
50
5
51
95
0
LINE
8
0
10
22.9647134
20
46.6410003
11
5.9795937
21
45.1549949
0
ARC
8
0
10
6.0667495
20
44.1588002
40
1
50
95
51
185
0
LINE
8
0
10
5.0705548
20
44.0716445
11
6.5565602
21
27.0865248
0
ARC
8
0
10
7.5527549
20
27.1736806
40
1
50
185
51
275
0
LINE
8
0
10
5.9629905
20
45.34477
11
22.9481102
21
46.8307754
0
ARC
8
0
10
22.8609544
20
47.8269701
40
1
50
275
51
5
0
LINE
8
0
10
23.8571491
20
47.9141258
11
22.3711437
21
64.8992455
0
ARC
8
0
10
21.374949
20
64.8120897
40
1
50
5
51
95
0
LINE
8
0
10
21.2877933
20
65.8082844
11
4.3026736
21
64.322279
0
ARC
8
0
10
4.3898294
20
63.3260843
40
1
50
95
51
185
0
LINE
8
0
10
3.3936347
20
63.2389286
11
4.8796401
21
46.2538089
0
ARC
8
0
10
5.8758348
20
46.3409647
40
1
50
185
51
275
0
LINE
8
0
10
28.2383283
20
13.2723968
11
45.2883283
21
13.2723968
0
ARC
8
0
10
45.2883283
20
14.2723968
40
1
50
270
51
360
0
LINE
8
0
10
46.2883283
20
14.2723968
11
46.2883283
21
31.3223968
0
ARC
8
0
10
45.2883283
20
31.3223968
40
1
50
0
51
90
0
LINE
8
0
10
45.2883283
20
32.3223968
11
28.2383283
21
32.3223968
0
ARC
8
0
10
28.2383283
20
31.3223968
40
1
50
90
51
180
0
LINE
8
0
10
27.2383283
20
31.3223968
11
27.2383283
21
14.2723968
0
ARC
8
0
10
28.2383283
20
14.2723968
40
1
50
180
51
270
0
LINE
8
0
10
28.2383283
20
32.5128968
11
45.2883283
21
32.5128968
0
ARC
8
0
10
45.2883283
20
33.5128968
40
1
50
270
51
360
0
LINE
8
0
10
46.2883283
20
33.5128968
11
46.2883283
21
50.5628968
0
ARC
8
0
10
45.2883283
20
50.5628968
40
1
50
0
51
90
0
LINE
8
0
10
45.2883283
20
51.5628968
11
28.2383283
21
51.5628968
0
ARC
8
0
10
28.2383283
20
50.5628968
40
1
50
90
51
180
0
LINE
8
0
10
27.2383283
20
50.5628968
11
27.2383283
21
33.5128968
0
ARC
8
0
10
28.2383283
20
33.5128968
40
1
50
180
51
270
0
LINE
8
0
10
28.2383283
20
51.7533968
11
45.2883283
21
51.7533968
0
ARC
8
0
10
45.2883283
20
52.7533968
40
1
50
270
51
360
0
LINE
8
0
10
46.2883283
20
52.7533968
11
46.2883283
21
69.8033968
0
ARC
8
0
10
45.2883283
20
69.8033968
40
1
50
0
51
90
0
LINE
8
0
10
45.2883283
20
70.8033968
11
28.2383283
21
70.8033968
0
ARC
8
0
10
28.2383283
20
69.8033968
40
1
50
90
51
180
0
LINE
8
0
10
27.2383283
20
69.8033968
11
27.2383283
21
52.7533968
0
ARC
8
0
10
28.2383283
20
52.7533968
40
1
50
180
51
270
0
LINE
8
0
10
48.4313283
20
9.4623968
11
65.4813283
21
9.4623968
0
ARC
8
0
10
65.4813283
20
10.4623968
40
1
50
270
51
360
0
LINE
8
0
10
66.4813283
20
10.4623968
11
66.4813283
21
27.5123968
0
ARC
8
0
10
65.4813283
20
27.5123968
40
1
50
0
51
90
0
LINE
8
0
10
65.4813283
20
28.5123968
11
48.4313283
21
28.5123968
0
ARC
8
0
10
48.4313283
20
27.5123968
40
1
50
90
51
180
0
LINE
8
0
10
47.4313283
20
27.5123968
11
47.4313283
21
10.4623968
0
ARC
8
0
10
48.4313283
20
10.4623968
40
1
50
180
51
270
0
LINE
8
0
10
48.4313283
20
28.7028968
11
65.4813283
21
28.7028968
0
ARC
8
0
10
65.4813283
20
29.7028968
40
1
50
270
51
360
0
LINE
8
0
10
66.4813283
20
29.7028968
11
66.4813283
21
46.7528968
0
ARC
8
0
10
65.4813283
20
46.7528968
40
1
50
0
51
90
0
LINE
8
0
10
65.4813283
20
47.7528968
11
48.4313283
21
47.7528968
0
ARC
8
0
10
48.4313283
20
46.7528968
40
1
50
90
51
180
0
LINE
8
0
10
47.4313283
20
46.7528968
11
47.4313283
21
29.7028968
0
ARC
8
0
10
48.4313283
20
29.7028968
40
1
50
180
51
270
0
LINE
8
0
10
48.4313283
20
47.9433968
11
65.4813283
21
47.9433968
0
ARC
8
0
10
65.4813283
20
48.9433968
40
1
50
270
51
360
0
LINE
8
0
10
66.4813283
20
48.9433968
11
66.4813283
21
65.9933968
0
ARC
8
0
10
65.4813283
20
65.9933968
40
1
50
0
51
90
0
LINE
8
0
10
65.4813283
20
66.9933968
11
48.4313283
21
66.9933968
0
ARC
8
0
10
48.4313283
20
65.9933968
40
1
50
90
51
180
0
LINE
8
0
10
47.4313283
20
65.9933968
11
47.4313283
21
48.9433968
0
ARC
8
0
10
48.4313283
20
48.9433968
40
1
50
180
51
270
0
LINE
8
0
10
68.6243283
20
7.5573968
11
85.6743283
21
7.5573968
0
ARC
8
0
10
85.6743283
20
8.5573968
40
1
50
270
51
360
0
LINE
8
0
10
86.6743283
20
8.5573968
11
86.6743283
21
25.6073968
0
ARC
8
0
10
85.6743283
20
25.6073968
40
1
50
0
51
90
0
LINE
8
0
10
85.6743283
20
26.6073968
11
68.6243283
21
26.6073968
0
ARC
8
0
10
68.6243283
20
25.6073968
40
1
50
90
51
180
0
LINE
8
0
10
67.6243283
20
25.6073968
11
67.6243283
21
8.5573968
0
ARC
8
0
10
68.6243283
20
8.5573968
40
1
50
180
51
270
0
LINE
8
0
10
68.6243283
20
26.7978968
11
85.6743283
21
26.7978968
0
ARC
8
0
10
85.6743283
20
27.7978968
40
1
50
270
51
360
0
LINE
8
0
10
86.6743283
20
27.7978968
11
86.6743283
21
44.8478968
0
ARC
8
0
10
85.6743283
20
44.8478968
40
1
50
0
51
90
0
LINE
8
0
10
85.6743283
20
45.8478968
11
68.6243283
21
45.8478968
0
ARC
8
0
10
68.6243283
20
44.8478968
40
1
50
90
51
180
0
LINE
8
0
10
67.6243283
20
44.8478968
11
67.6243283
21
27.7978968
0
ARC
8
0
10
68.6243283
20
27.7978968
40
1
50
180
51
270
0
LINE
8
0
10
68.6243283
20
46.0383968
11
85.6743283
21
46.0383968
0
ARC
8
0
10
85.6743283
20
47.0383968
40
1
50
270
51
360
0
LINE
8
0
10
86.6743283
20
47.0383968
11
86.6743283
21
64.0883968
0
ARC
8
0
10
85.6743283
20
64.0883968
40
1
50
0
51
90
0
LINE
8
0
10
85.6743283
20
65.0883968
11
68.6243283
21
65.0883968
0
ARC
8
0
10
68.6243283
20
64.0883968
40
1
50
90
51
180
0
LINE
8
0
10
67.6243283
20
64.0883968
11
67.6243283
21
47.0383968
0
ARC
8
0
10
68.6243283
20
47.0383968
40
1
50
180
51
270
0
LINE
8
0
10
55.7182558
20
-12.0384386
11
72.509228
21
-14.9991401
0
ARC
8
0
10
72.6828762
20
-14.0143323
40
1
50
260
51
350
0
LINE
8
0
10
73.6676839
20
-14.1879805
11
76.6283854
21
2.6029917
0
ARC
8
0
10
75.6435776
20
2.7766399
40
1
50
350
51
80
0
LINE
8
0
10
75.8172258
20
3.7614476
11
59.0262536
21
6.7221491
0
ARC
8
0
10
58.8526054
20
5.7373413
40
1
50
80
51
170
0
LINE
8
0
10
57.8677977
20
5.9109895
11
54.9070962
21
-10.8799827
0
ARC
8
0
10
55.891904
20
-11.0536309
40
1
50
170
51
260
0
LINE
8
0
10
74.4337283
20
-15.5148084
11
90.4554875
21
-21.3462518
0
ARC
8
0
10
90.7975077
20
-20.4065592
40
1
50
250
51
340
0
LINE
8
0
10
91.7372003
20
-20.7485794
11
97.5686437
21
-4.7268202
0
ARC
8
0
10
96.6289511
20
-4.3848
40
1
50
340
51
70
0
LINE
8
0
10
96.9709713
20
-3.4451074
11
80.9492121
21
2.386336
0
ARC
8
0
10
80.6071919
20
1.4466434
40
1
50
70
51
160
0
LINE
8
0
10
79.6674993
20
1.7886636
11
73.8360559
21
-14.2330956
0
ARC
8
0
10
74.7757485
20
-14.5751158
40
1
50
160
51
250
0
LINE
8
0
10
92.2612056
20
-22.1882721
11
107.0269388
21
-30.7132721
0
ARC
8
0
10
107.5269388
20
-29.8472467
40
1
50
240
51
330
0
LINE
8
0
10
108.3929642
20
-30.3472467
11
116.9179642
21
-15.5815135
0
ARC
8
0
10
116.0519388
20
-15.0815135
40
1
50
330
51
60
0
LINE
8
0
10
116.5519388
20
-14.2154881
11
101.7862056
21
-5.6904881
0
ARC
8
0
10
101.2862056
20
-6.5565135
40
1
50
60
51
150
0
LINE
8
0
10
100.4201802
20
-6.0565135
11
91.8951802
21
-20.8222467
0
ARC
8
0
10
92.7612056
20
-21.3222467
40
1
50
150
51
240
0
ENDSEC
0
EOF