0
SECTION
2
HEADER
9
$INSUNITS
70
4
0
ENDSEC
0
SECTION
2
TABLES
0
TABLE
2
LTYPE
0
LTYPE
72
65
70
64
2
CONTINUOUS
3
______
73
0
40
0
0
ENDTAB
0
TABLE
2
LAYER
0
ENDTAB
0
ENDSEC
0
SECTION
2
ENTITIES
0
LINE
8
0
10
-6.668856
20
-12.1776439
11
10.5269788
21
-8.5225563
0
ARC
8
0
10
-10.6295737
20
6.4560679
40
2
50
158.79577
51
192
0
LINE
8
0
10
-12.5858689
20
6.0402446
11
-9.0409746
21
-10.637172
0
ARC
8
0
10
-7.0846794
20
-10.2213487
40
2
50
192
51
282
0
ARC
8
0
10
-14.6298986
20
25.2761168
40
2
50
158.79577
51
192
0
LINE
8
0
10
-16.5861938
20
24.8602935
11
-13.0412995
21
8.1828769
0
ARC
8
0
10
-11.0850043
20
8.5987002
40
2
50
192
51
225.2042307
0
LINE
8
0
10
-14.2497503
20
47.0719452
11
-19.0460469
21
46.0524609
0
ARC
8
0
10
-18.6302235
20
44.0961657
40
2
50
102
51
192
0
LINE
8
0
10
-20.5865187
20
43.6803424
11
-17.0416244
21
27.0029258
0
ARC
8
0
10
-15.0853292
20
27.4187491
40
2
50
192
51
225.2042307
0
LINE
8
0
10
12.7080777
20
66.0614764
11
3.6875347
21
65.2722811
0
ARC
8
0
10
3.8618462
20
63.2798918
40
2
50
95
51
185
0
LINE
8
0
10
1.8694568
20
63.1055803
11
2.9183263
21
51.1169464
0
LINE
8
0
10
47.8183283
20
67.9916738
11
47.8183283
21
69.8033968
0
ARC
8
0
10
45.8183283
20
69.8033968
40
2
50
0
51
90
0
LINE
8
0
10
45.8183283
20
71.8033968
11
27.7083283
21
71.8033968
0
ARC
8
0
10
27.7083283
20
69.8033968
40
2
50
90
51
180
0
LINE
8
0
10
25.7083283
20
69.8033968
11
25.7083283
21
67.2306601
0
ARC
8
0
10
66.0113283
20
65.9933968
40
2
50
2.6705377
51
90
0
LINE
8
0
10
66.0113283
20
67.9933968
11
47.9013283
21
67.9933968
0
ARC
8
0
10
47.9013283
20
65.9933968
40
2
50
90
51
92.3784579
0
ARC
8
0
10
86.2043283
20
8.5573968
40
2
50
349.3991404
51
360
0
LINE
8
0
10
88.2043283
20
8.5573968
11
88.2043283
21
25.6073968
0
ARC
8
0
10
86.2043283
20
25.6073968
40
2
50
0
51
33.2042296
0
ARC
8
0
10
86.2043283
20
27.7978968
40
2
50
326.7957704
51
360
0
LINE
8
0
10
88.2043283
20
27.7978968
11
88.2043283
21
44.8478968
0
ARC
8
0
10
86.2043283
20
44.8478968
40
2
50
0
51
33.2042296
0
ARC
8
0
10
86.2043283
20
47.0383968
40
2
50
326.7957704
51
360
0
LINE
8
0
10
88.2043283
20
47.0383968
11
88.2043283
21
64.0883968
0
ARC
8
0
10
86.2043283
20
64.0883968
40
2
50
0
51
90
0
LINE
8
0
10
86.2043283
20
66.0883968
11
68.0943283
21
66.0883968
0
ARC
8
0
10
68.0943283
20
64.0883968
40
2
50
90
51
92.4407391
0
ARC
8
0
10
107.9859322
20
-30.1122467
40
2
50
246.6613074
51
330
0
LINE
8
0
10
109.717983
20
-31.1122467
11
118.242983
21
-16.3465135
0
ARC
8
0
10
116.5109322
20
-15.3465135
40
2
50
330
51
413.3386933
0
LINE
8
0
10
25.7083283
20
67.2306601
11
12.7080777
21
66.0614764
0
LINE
8
0
10
-14.2497503
20
47.0719452
11
2.9183263
21
51.1169464
0
LINE
8
0
10
88.1701935
20
8.1894646
11
117.7118501
21
-13.7304627
0
LINE
8
0
10
117.7118501
20
-13.7304627
11
117.7050993
21
-13.7421554
0
LINE
8
0
10
107.1936009
20
-31.9486048
11
107.1868501
21
-31.9602975
0
LINE
8
0
10
107.1868501
20
-31.9602975
11
55.5446076
21
-13.0232464
0
LINE
8
0
10
55.5446076
20
-13.0232464
11
10.5269788
21
-8.5225563
0
ENDSEC
0
EOF