0
SECTION
2
HEADER
9
$INSUNITS
70
4
0
ENDSEC
0
SECTION
2
TABLES
0
TABLE
2
LTYPE
0
LTYPE
72
65
70
64
2
CONTINUOUS
3
______
73
0
40
0
0
ENDTAB
0
TABLE
2
LAYER
0
ENDTAB
0
ENDSEC
0
SECTION
2
ENTITIES
0
LINE
8
0
10
-6.668856
20
-12.1776439
11
11.0453971
21
-8.4123631
0
ARC
8
0
10
10.6295737
20
-6.4560679
40
2
50
282
51
12
0
LINE
8
0
10
12.5858689
20
-6.0402446
11
10.0123454
21
6.0672317
0
ARC
8
0
10
-10.6295737
20
6.4560679
40
2
50
158.79577
51
192
0
LINE
8
0
10
-12.5858689
20
6.0402446
11
-9.0409746
21
-10.637172
0
ARC
8
0
10
-7.0846794
20
-10.2213487
40
2
50
192
51
282
0
ARC
8
0
10
3.0843545
20
29.0413976
40
2
50
33.4410899
51
45.2042307
0
ARC
8
0
10
-14.6298986
20
25.2761168
40
2
50
158.79577
51
192
0
LINE
8
0
10
-16.5861938
20
24.8602935
11
-13.0412995
21
8.1828769
0
ARC
8
0
10
-11.0850043
20
8.5987002
40
2
50
192
51
225.2042307
0
ARC
8
0
10
2.6289239
20
31.1840299
40
2
50
338.79577
51
12
0
LINE
8
0
10
4.5852191
20
31.5998532
11
1.0403248
21
48.2772698
0
ARC
8
0
10
-0.9159704
20
47.8614465
40
2
50
12
51
102
0
LINE
8
0
10
-1.3317938
20
49.8177417
11
-19.0460469
21
46.0524609
0
ARC
8
0
10
-18.6302235
20
44.0961657
40
2
50
102
51
192
0
LINE
8
0
10
-20.5865187
20
43.6803424
11
-17.0416244
21
27.0029258
0
ARC
8
0
10
-15.0853292
20
27.4187491
40
2
50
192
51
225.2042307
0
LINE
8
0
10
10.0123454
20
6.0672317
11
26.9170893
21
7.5462051
0
ARC
8
0
10
26.7427778
20
9.5385944
40
2
50
275
51
5
0
LINE
8
0
10
28.7351672
20
9.7129059
11
28.5112408
21
12.2723968
0
LINE
8
0
10
25.7083283
20
44.3098327
11
25.5722417
21
45.8653096
0
ARC
8
0
10
23.5798523
20
45.6909982
40
2
50
5
51
38.204229
0
ARC
8
0
10
5.5387663
20
44.1126077
40
2
50
151.7957724
51
185
0
LINE
8
0
10
3.5463769
20
43.9382962
11
4.7532602
21
30.1435562
0
ARC
8
0
10
23.3889376
20
47.8731626
40
2
50
331.7957724
51
5
0
LINE
8
0
10
25.381327
20
48.0474741
11
23.8953216
21
65.0325937
0
ARC
8
0
10
21.9029322
20
64.8582823
40
2
50
5
51
95
0
LINE
8
0
10
21.7286207
20
66.8506716
11
3.6875347
21
65.2722811
0
ARC
8
0
10
3.8618462
20
63.2798918
40
2
50
95
51
185
0
LINE
8
0
10
1.8694568
20
63.1055803
11
3.3554622
21
46.1204607
0
ARC
8
0
10
5.3478516
20
46.2947721
40
2
50
185
51
218.204229
0
LINE
8
0
10
28.5112408
20
12.2723968
11
45.8183283
21
12.2723968
0
ARC
8
0
10
45.8183283
20
14.2723968
40
2
50
270
51
272.3784579
0
ARC
8
0
10
27.7083283
20
50.5628968
40
2
50
146.7957704
51
180
0
LINE
8
0
10
25.7083283
20
50.5628968
11
25.7083283
21
44.3098327
0
LINE
8
0
10
47.8183283
20
67.9916738
11
47.8183283
21
69.8033968
0
ARC
8
0
10
45.8183283
20
69.8033968
40
2
50
0
51
90
0
LINE
8
0
10
45.8183283
20
71.8033968
11
27.7083283
21
71.8033968
0
ARC
8
0
10
27.7083283
20
69.8033968
40
2
50
90
51
180
0
LINE
8
0
10
25.7083283
20
69.8033968
11
25.7083283
21
52.7533968
0
ARC
8
0
10
27.7083283
20
52.7533968
40
2
50
180
51
213.2042296
0
LINE
8
0
10
47.9013283
20
8.4623968
11
66.0113283
21
8.4623968
0
ARC
8
0
10
66.0113283
20
10.4623968
40
2
50
270
51
272.4407391
0
LINE
8
0
10
45.9013283
20
12.2741198
11
45.9013283
21
10.4623968
0
ARC
8
0
10
47.9013283
20
10.4623968
40
2
50
180
51
270
0
ARC
8
0
10
66.0113283
20
65.9933968
40
2
50
2.6705377
51
90
0
LINE
8
0
10
66.0113283
20
67.9933968
11
47.9013283
21
67.9933968
0
ARC
8
0
10
47.9013283
20
65.9933968
40
2
50
90
51
92.3784579
0
LINE
8
0
10
68.0943283
20
6.5573968
11
86.2043283
21
6.5573968
0
ARC
8
0
10
86.2043283
20
8.5573968
40
2
50
270
51
360
0
LINE
8
0
10
88.2043283
20
8.5573968
11
88.2043283
21
25.6073968
0
ARC
8
0
10
86.2043283
20
25.6073968
40
2
50
0
51
33.2042296
0
ARC
8
0
10
68.0943283
20
8.5573968
40
2
50
182.6705377
51
270
0
ARC
8
0
10
86.2043283
20
27.7978968
40
2
50
326.7957704
51
360
0
LINE
8
0
10
88.2043283
20
27.7978968
11
88.2043283
21
44.8478968
0
ARC
8
0
10
86.2043283
20
44.8478968
40
2
50
0
51
33.2042296
0
ARC
8
0
10
86.2043283
20
47.0383968
40
2
50
326.7957704
51
360
0
LINE
8
0
10
88.2043283
20
47.0383968
11
88.2043283
21
64.0883968
0
ARC
8
0
10
86.2043283
20
64.0883968
40
2
50
0
51
90
0
LINE
8
0
10
86.2043283
20
66.0883968
11
68.0943283
21
66.0883968
0
ARC
8
0
10
68.0943283
20
64.0883968
40
2
50
90
51
92.4407391
0
LINE
8
0
10
55.0226595
20
-12.9312129
11
72.8575279
21
-16.0759813
0
ARC
8
0
10
73.2048243
20
-14.1063658
40
2
50
260
51
271.1220004
0
LINE
8
0
10
78.0375475
20
1.7838284
11
78.1351412
21
2.33731
0
ARC
8
0
10
76.1655257
20
2.6846063
40
2
50
350
51
80
0
LINE
8
0
10
76.5128221
20
4.6542219
11
58.6779537
21
7.7989903
0
ARC
8
0
10
58.3306573
20
5.8293748
40
2
50
80
51
170
0
LINE
8
0
10
56.3610418
20
6.1766712
11
53.4003404
21
-10.614301
0
ARC
8
0
10
55.3699559
20
-10.9615973
40
2
50
170
51
260
0
LINE
8
0
10
73.5936711
20
-16.2732303
11
90.6115045
21
-22.4672151
0
ARC
8
0
10
91.2955448
20
-20.5878299
40
2
50
250
51
261.1220015
0
LINE
8
0
10
98.8141509
20
-5.7782379
11
99.0063734
21
-5.250111
0
ARC
8
0
10
97.1269882
20
-4.5660707
40
2
50
340
51
70
0
LINE
8
0
10
97.8110285
20
-2.6866855
11
80.7931951
21
3.5072993
0
ARC
8
0
10
80.1091548
20
1.6279141
40
2
50
70
51
160
0
LINE
8
0
10
78.2297696
20
2.3119544
11
78.0375475
21
1.7838284
0
ARC
8
0
10
74.2777114
20
-14.3938451
40
2
50
238.8779912
51
250
0
LINE
8
0
10
91.3022122
20
-22.7892975
11
106.9859322
21
-31.8442975
0
ARC
8
0
10
107.9859322
20
-30.1122467
40
2
50
240
51
330
0
LINE
8
0
10
109.717983
20
-31.1122467
11
118.242983
21
-16.3465135
0
ARC
8
0
10
116.5109322
20
-15.3465135
40
2
50
330
51
60
0
LINE
8
0
10
117.5109322
20
-13.6144627
11
101.8272122
21
-4.5594627
0
ARC
8
0
10
100.8272122
20
-6.2915135
40
2
50
60
51
150
0
LINE
8
0
10
99.0951614
20
-5.2915135
11
98.8141509
21
-5.7782379
0
ARC
8
0
10
92.3022122
20
-21.0572467
40
2
50
228.8779887
51
240
0
ENDSEC
0
EOF