0
SECTION
2
HEADER
9
$INSUNITS
70
4
0
ENDSEC
0
SECTION
2
TABLES
0
TABLE
2
LTYPE
0
LTYPE
72
65
70
64
2
CONTINUOUS
3
______
73
0
40
0
0
ENDTAB
0
TABLE
2
LAYER
0
ENDTAB
0
ENDSEC
0
SECTION
2
ENTITIES
0
LINE
8
0
10
-5.3916514
20
-8.302415
11
8.302415
21
-5.3916514
0
LINE
8
0
10
8.302415
20
-5.3916514
11
5.3916514
21
8.302415
0
LINE
8
0
10
5.3916514
20
8.302415
11
-8.302415
21
5.3916514
0
LINE
8
0
10
-8.302415
20
5.3916514
11
-5.3916514
21
-8.302415
0
LINE
8
0
10
-9.3919763
20
10.5176339
11
4.3020901
21
13.4283975
0
LINE
8
0
10
4.3020901
20
13.4283975
11
1.3913265
21
27.1224639
0
LINE
8
0
10
1.3913265
20
27.1224639
11
-12.3027399
21
24.2117003
0
LINE
8
0
10
-12.3027399
20
24.2117003
11
-9.3919763
21
10.5176339
0
LINE
8
0
10
-13.3923012
20
29.3376828
11
0.3017652
21
32.2484464
0
LINE
8
0
10
0.3017652
20
32.2484464
11
-2.6089984
21
45.9425128
0
LINE
8
0
10
-2.6089984
20
45.9425128
11
-16.3030648
21
43.0317492
0
LINE
8
0
10
-16.3030648
20
43.0317492
11
-13.3923012
21
29.3376828
0
LINE
8
0
10
10.6159594
20
9.6585059
11
24.5626852
21
10.8786863
0
LINE
8
0
10
24.5626852
20
10.8786863
11
23.3425048
21
24.8254121
0
LINE
8
0
10
23.3425048
20
24.8254121
11
9.395779
21
23.6052317
0
LINE
8
0
10
9.395779
20
23.6052317
11
10.6159594
21
9.6585059
0
LINE
8
0
10
8.9390393
20
28.82579
11
22.8857651
21
30.0459704
0
LINE
8
0
10
22.8857651
20
30.0459704
11
21.6655847
21
43.9926962
0
LINE
8
0
10
21.6655847
20
43.9926962
11
7.7188589
21
42.7725158
0
LINE
8
0
10
7.7188589
20
42.7725158
11
8.9390393
21
28.82579
0
LINE
8
0
10
7.2621192
20
47.9930741
11
21.208845
21
49.2132545
0
LINE
8
0
10
21.208845
20
49.2132545
11
19.9886646
21
63.1599803
0
LINE
8
0
10
19.9886646
20
63.1599803
11
6.0419388
21
61.9397999
0
LINE
8
0
10
6.0419388
20
61.9397999
11
7.2621192
21
47.9930741
0
LINE
8
0
10
29.7633283
20
15.7973968
11
43.7633283
21
15.7973968
0
LINE
8
0
10
43.7633283
20
15.7973968
11
43.7633283
21
29.7973968
0
LINE
8
0
10
43.7633283
20
29.7973968
11
29.7633283
21
29.7973968
0
LINE
8
0
10
29.7633283
20
29.7973968
11
29.7633283
21
15.7973968
0
LINE
8
0
10
29.7633283
20
35.0378968
11
43.7633283
21
35.0378968
0
LINE
8
0
10
43.7633283
20
35.0378968
11
43.7633283
21
49.0378968
0
LINE
8
0
10
43.7633283
20
49.0378968
11
29.7633283
21
49.0378968
0
LINE
8
0
10
29.7633283
20
49.0378968
11
29.7633283
21
35.0378968
0
LINE
8
0
10
29.7633283
20
54.2783968
11
43.7633283
21
54.2783968
0
LINE
8
0
10
43.7633283
20
54.2783968
11
43.7633283
21
68.2783968
0
LINE
8
0
10
43.7633283
20
68.2783968
11
29.7633283
21
68.2783968
0
LINE
8
0
10
29.7633283
20
68.2783968
11
29.7633283
21
54.2783968
0
LINE
8
0
10
49.9563283
20
11.9873968
11
63.9563283
21
11.9873968
0
LINE
8
0
10
63.9563283
20
11.9873968
11
63.9563283
21
25.9873968
0
LINE
8
0
10
63.9563283
20
25.9873968
11
49.9563283
21
25.9873968
0
LINE
8
0
10
49.9563283
20
25.9873968
11
49.9563283
21
11.9873968
0
LINE
8
0
10
49.9563283
20
31.2278968
11
63.9563283
21
31.2278968
0
LINE
8
0
10
63.9563283
20
31.2278968
11
63.9563283
21
45.2278968
0
LINE
8
0
10
63.9563283
20
45.2278968
11
49.9563283
21
45.2278968
0
LINE
8
0
10
49.9563283
20
45.2278968
11
49.9563283
21
31.2278968
0
LINE
8
0
10
49.9563283
20
50.4683968
11
63.9563283
21
50.4683968
0
LINE
8
0
10
63.9563283
20
50.4683968
11
63.9563283
21
64.4683968
0
LINE
8
0
10
63.9563283
20
64.4683968
11
49.9563283
21
64.4683968
0
LINE
8
0
10
49.9563283
20
64.4683968
11
49.9563283
21
50.4683968
0
LINE
8
0
10
70.1493283
20
10.0823968
11
84.1493283
21
10.0823968
0
LINE
8
0
10
84.1493283
20
10.0823968
11
84.1493283
21
24.0823968
0
LINE
8
0
10
84.1493283
20
24.0823968
11
70.1493283
21
24.0823968
0
LINE
8
0
10
70.1493283
20
24.0823968
11
70.1493283
21
10.0823968
0
LINE
8
0
10
70.1493283
20
29.3228968
11
84.1493283
21
29.3228968
0
LINE
8
0
10
84.1493283
20
29.3228968
11
84.1493283
21
43.3228968
0
LINE
8
0
10
84.1493283
20
43.3228968
11
70.1493283
21
43.3228968
0
LINE
8
0
10
70.1493283
20
43.3228968
11
70.1493283
21
29.3228968
0
LINE
8
0
10
70.1493283
20
48.5633968
11
84.1493283
21
48.5633968
0
LINE
8
0
10
84.1493283
20
48.5633968
11
84.1493283
21
62.5633968
0
LINE
8
0
10
84.1493283
20
62.5633968
11
70.1493283
21
62.5633968
0
LINE
8
0
10
70.1493283
20
62.5633968
11
70.1493283
21
48.5633968
0
LINE
8
0
10
57.6585493
20
-9.8166125
11
71.4458578
21
-12.247687
0
LINE
8
0
10
71.4458578
20
-12.247687
11
73.8769323
21
1.5396215
0
LINE
8
0
10
73.8769323
20
1.5396215
11
60.0896238
21
3.970696
0
LINE
8
0
10
60.0896238
20
3.970696
11
57.6585493
21
-9.8166125
0
LINE
8
0
10
76.7303605
20
-13.6636652
11
89.8860571
21
-18.4519472
0
LINE
8
0
10
89.8860571
20
-18.4519472
11
94.6743391
21
-5.2962506
0
LINE
8
0
10
94.6743391
20
-5.2962506
11
81.5186425
21
-0.5079686
0
LINE
8
0
10
81.5186425
20
-0.5079686
11
76.7303605
21
-13.6636652
0
LINE
8
0
10
94.8443944
20
-20.7640579
11
106.96875
21
-27.7640579
0
LINE
8
0
10
106.96875
20
-27.7640579
11
113.96875
21
-15.6397023
0
LINE
8
0
10
113.96875
20
-15.6397023
11
101.8443944
21
-8.6397023
0
LINE
8
0
10
101.8443944
20
-8.6397023
11
94.8443944
21
-20.7640579
0
ENDSEC
0
EOF